<svg xmlns="http://www.w3.org/2000/svg" viewBox="0 0 96 96" fill="none">
  <rect width="96" height="96" rx="28" fill="#07111f"/>
  <rect x="10" y="10" width="76" height="76" rx="24" fill="url(#g)"/>
  <path d="M31 68V28h11v30h18v10H31Z" fill="#07111f"/>
  <path d="M62.8 61.5c-2.4 5.5-7 8.3-13.7 8.3-8.8 0-14.7-5.4-14.7-14.1 0-8.9 5.8-14.3 14.6-14.3 6.8 0 11.6 3.2 13.6 9.1H52.2c-0.9-1.4-2.2-2.1-4.1-2.1-3.2 0-5.1 2.6-5.1 7 0 4.3 1.9 6.8 5.3 6.8 2.1 0 3.7-0.9 4.7-2.7h9.8Z" fill="#07111f"/>
  <defs>
    <linearGradient id="g" x1="16" y1="14" x2="82" y2="86" gradientUnits="userSpaceOnUse">
      <stop stop-color="#45e0c2"/>
      <stop offset="1" stop-color="#5ea6ff"/>
    </linearGradient>
  </defs>
</svg>
